<?xml version="1.0" encoding="UTF-8"?>
<svg xmlns="http://www.w3.org/2000/svg" xmlns:xlink="http://www.w3.org/1999/xlink" version="1.1" viewBox="0 0 82.8 98.21">
  <defs>
    <style>
      .cls-1 {
        fill: none;
      }

      .cls-2 {
        clip-path: url(#clippath);
      }
    </style>
    <clipPath id="clippath">
      <rect class="cls-1" x="14.05" y="22.03" width="60.11" height="48.22"/>
    </clipPath>
  </defs>
  <!-- Generator: Adobe Illustrator 28.6.0, SVG Export Plug-In . SVG Version: 1.2.0 Build 709)  -->
  <g>
    <g id="Ebene_1">
      <g id="Gruppe_1167">
        <g class="cls-2">
          <g id="Gruppe_1163">
            <g id="Gruppe_1142">
              <path id="Pfad_16948" d="M44.14,42.09c8.47,0,16.93.03,25.4-.03,1.4,0,1.93.25,1.9,1.81-.1,5.51-.07,11.03-.02,16.54.01,1.22-.2,1.9-1.63,1.74-1.48-.17-3.35.58-4.38-.3-.96-.83-.52-2.73-.69-4.16-.16-1.27-.29-2.55-.43-3.82-.16-1.48-.62-2.82,1.4-3.78,1.55-.75,1.25-2.73.85-4.26-.37-1.44-1.54-1.95-2.96-1.94-3.84,0-7.69,0-11.53,0-1.4-.14-2.68.8-2.96,2.18-.53,2.12,0,3.87,1.56,4.47,1.08.42,1.06.95.95,1.88-.35,2.76-.62,5.53-.85,8.31-.08,1.03-.42,1.45-1.52,1.43-3.45-.07-6.91-.06-10.36,0-1.03.02-1.34-.39-1.42-1.34-.26-2.94-.59-5.87-.93-8.8-.16-.58.18-1.18.76-1.34.01,0,.03,0,.04-.01,1.76-.76,2.38-2.48,1.77-4.68-.47-1.69-1.74-2.14-3.36-2.11-3.56.04-7.13,0-10.69.01-2.06,0-3.1.66-3.48,2.16-.54,2.14.06,3.73,1.86,4.62.54.27.76.51.69,1.11-.35,3.1-.68,6.2-.97,9.3-.07.75-.36,1-1.13,1.06-5.22.39-5.22.41-5.22-4.81,0-4.51.06-9.02-.03-13.53-.03-1.44.45-1.74,1.8-1.74,8.52.06,17.04.03,25.57.03"/>
            </g>
            <g id="Gruppe_1143">
              <path id="Pfad_16949" d="M44.03,41.23h-27.4c-.39,0-.78,0-1.17,0-.85-.02-1.43-.41-1.41-1.29s.64-1.23,1.48-1.23c.33,0,.67,0,1,0h55.13c.39,0,.78-.01,1.17.01.76.05,1.31.41,1.33,1.21.02.88-.55,1.3-1.4,1.3-2.23.01-4.45.02-6.68.02h-22.05,0Z"/>
            </g>
            <g id="Gruppe_1144">
              <path id="Pfad_16950" d="M44.16,22.04h22.37c.33,0,.67,0,1,0,.84-.02,1.47.33,1.52,1.2.05.98-.64,1.33-1.53,1.34-2.89.01-5.79.02-8.68.02H21.27c-.96,0-2.11.05-2.09-1.28.01-1.33,1.12-1.27,2.11-1.27,7.62,0,15.25.01,22.88,0h0Z"/>
            </g>
            <g id="Gruppe_1145">
              <path id="Pfad_16951" d="M57.62,62.13c-1.06-.14-2.77.59-3.6-.3-.76-.82.03-2.43.13-3.7.16-2.05.48-4.09.61-6.14.06-.99.5-1.22,1.36-1.16.78.05,1.56.01,2.33.01q2.41,0,2.64,2.32c.25,2.54.47,5.09.79,7.63.13,1.02-.11,1.44-1.19,1.35-.94-.08-1.89-.02-3.09-.02"/>
            </g>
            <g id="Gruppe_1146">
              <path id="Pfad_16952" d="M30.09,62.13c-1.07-.14-2.82.59-3.59-.3s0-2.54.13-3.85c.2-1.99.45-3.98.6-5.97.07-.93.45-1.23,1.35-1.17,1.17.06,2.33.06,3.5,0,.89-.05,1.27.2,1.36,1.17.24,2.94.56,5.87.93,8.79.13,1.03-.13,1.44-1.2,1.35-.94-.07-1.89-.01-3.08-.01"/>
            </g>
            <g id="Gruppe_1147">
              <path id="Pfad_16953" d="M30.48,44.71c1.84,0,3.67-.03,5.51,0s2.42.7,2.43,2.6c0,1.94-.56,2.66-2.35,2.68-3.84.04-7.68.04-11.52,0-1.73-.02-2.27-.76-2.26-2.77.01-1.84.57-2.46,2.34-2.5,1.95-.04,3.9,0,5.84,0h0Z"/>
            </g>
            <g id="Gruppe_1148">
              <path id="Pfad_16954" d="M57.91,50.01c-1.95,0-3.9.05-5.84-.01-1.74-.05-2.3-.78-2.27-2.76.02-1.8.62-2.5,2.34-2.51,3.84-.03,7.68-.03,11.52,0,1.72.02,2.26.69,2.26,2.57,0,1.98-.55,2.66-2.33,2.7-1.89.05-3.78.01-5.68.01h0Z"/>
            </g>
            <g id="Gruppe_1149">
              <path id="Pfad_16955" d="M26.84,35.36c-3.14,0-3.13,0-3.13-3.16,0-1.36.07-2.57,1.83-2.81,1.13-.16.47-1.15.68-1.75.26-.73-.7-2.12.68-2.14,1.41-.02.58,1.37.69,2.11.14.9-.17,1.88,1.3,1.95.68.03,1.08.72,1.17,1.45.03.33.04.67.03,1q.03,3.34-3.26,3.35"/>
            </g>
            <g id="Gruppe_1150">
              <path id="Pfad_16956" d="M61.26,35.36c-3.15,0-3.13,0-3.15-3.13-.01-1.46.16-2.61,1.98-2.88.88-.13.32-1.12.51-1.69.24-.74-.68-2.11.67-2.14,1.45-.04.58,1.36.7,2.08.15.91-.16,1.9,1.32,1.96.71.03,1.08.73,1.18,1.43.04.33.05.67.04,1q.04,3.37-3.25,3.37"/>
            </g>
            <g id="Gruppe_1151">
              <path id="Pfad_16957" d="M44.03,35.36c-3.2,0-3.19,0-3.14-3.33.02-1.33.24-2.42,1.87-2.64,1.17-.15.44-1.16.66-1.74.28-.73-.69-2.12.68-2.13,1.39,0,.55,1.38.66,2.12.14.92-.14,1.89,1.33,1.92.62.01,1.01.65,1.13,1.3.06.38.1.77.1,1.16q.08,3.34-3.29,3.34"/>
            </g>
            <g id="Gruppe_1152">
              <path id="Pfad_16958" d="M35.54,35.36c-3.24.01-3.21.01-3.21-3.24,0-1.4.17-2.59,1.93-2.71.68-.05.53-.6.54-1.01.03-.78.02-1.55.02-2.33-.04-.3.17-.58.48-.62.04,0,.08,0,.12,0,.46-.03.76.12.77.63.03.5.03,1,.01,1.5-.08,1.06-.08,1.96,1.39,2.03.63.03.98.69,1.1,1.33.05.39.07.77.05,1.16q.03,3.27-3.18,3.28"/>
            </g>
            <g id="Gruppe_1153">
              <path id="Pfad_16959" d="M52.69,35.36c-3.2-.01-3.18-.01-3.2-3.11-.01-1.45.12-2.72,1.97-2.85.65-.05.57-.56.58-1,0-.72.01-1.44,0-2.16,0-.52.14-.85.76-.81.53.03.62.36.61.78,0,.56.03,1.11,0,1.66-.04.88-.07,1.63,1.2,1.66.7.02,1.11.69,1.22,1.4.04.39.06.77.05,1.16q.03,3.27-3.2,3.25"/>
            </g>
            <g id="Gruppe_1154">
              <path id="Pfad_16960" d="M44.11,62.92h5.32c.5,0,1.12-.06.96.72-.14.67.27,1.81-.88,1.84-3.6.08-7.2.08-10.81,0-1.15-.03-.74-1.16-.88-1.84-.16-.78.46-.72.96-.72h5.32"/>
            </g>
            <g id="Gruppe_1155">
              <path id="Pfad_16961" d="M26.39,52.5c-.58,5.53-1.14,10.95-1.71,16.38-.07.66-.12,1.52-1.06,1.35-.83-.16-.53-.98-.47-1.55.54-5.31,1.1-10.63,1.66-15.94,0-.11.01-.22.04-.33.25-.57-.24-1.68.98-1.53,1.25.16.29,1.17.55,1.62"/>
            </g>
            <g id="Gruppe_1156">
              <path id="Pfad_16962" d="M61.8,52.14c.1-.44-.41-1.14.52-1.28s.92.54.98,1.15c.6,5.64,1.2,11.29,1.8,16.93.06.53.21,1.25-.6,1.3-.84.05-.89-.69-.95-1.3-.59-5.59-1.17-11.19-1.75-16.8"/>
            </g>
            <g id="Gruppe_1157">
              <path id="Pfad_16963" d="M37.44,67.89c.04.58.07.75.07.92,0,.57.37,1.37-.58,1.44-.84.06-.84-.73-.9-1.33-.6-5.63-1.2-11.26-1.8-16.89-.06-.54-.28-1.14.63-1.2.83-.05.84.51.9,1.08.57,5.47,1.14,10.93,1.68,15.98"/>
            </g>
            <g id="Gruppe_1158">
              <path id="Pfad_16964" d="M54,51.91c-.6,5.69-1.2,11.37-1.81,17.06-.07.61-.08,1.36-.95,1.27-.82-.08-.59-.79-.54-1.32.58-5.69,1.18-11.37,1.76-17.06.06-.62.15-1.08.94-1.02s.65.58.6,1.07"/>
            </g>
            <g id="Gruppe_1159">
              <path id="Pfad_16965" d="M30.24,65.51c-.94,0-1.89.04-2.83-.01-.61-.04-1.59.41-1.47-.9.09-.95.02-1.84,1.5-1.72,1.94.14,3.88.14,5.82,0,1.3-.08,1.4.59,1.5,1.58.13,1.39-.84,1.01-1.53,1.03-1,.04-2,.01-2.99.01"/>
            </g>
            <g id="Gruppe_1160">
              <path id="Pfad_16966" d="M57.72,65.51c-.94,0-1.88.03-2.82,0-.65-.02-1.55.3-1.42-.97.09-.92.06-1.73,1.43-1.66,2.05.11,4.1.11,6.14,0,1.39-.07,1.09.89,1.23,1.64.2,1.1-.57.98-1.23.98h-3.32"/>
            </g>
            <g id="Gruppe_1161">
              <path id="Pfad_16967" d="M18.72,62.91c1,0,2-.02,3,0,.56.01,1.4-.21,1.14.85-.16.69.3,1.8-1.13,1.76-2-.05-3.99,0-5.99-.01-.91,0-1.74-.28-1.68-1.38.05-.96.78-1.24,1.66-1.22,1,.02,2,0,2.99,0h0Z"/>
            </g>
            <g id="Gruppe_1162">
              <path id="Pfad_16968" d="M69.44,62.92c1.11,0,2.22-.02,3.33,0,.68-.08,1.31.41,1.39,1.09,0,.07.01.15,0,.22.03.65-.47,1.21-1.12,1.24-.06,0-.11,0-.17,0-2.22.04-4.44.08-6.66,0-1.22-.04-.68-1.18-.86-1.83-.23-.79.43-.72.92-.73,1.05,0,2.11,0,3.16,0"/>
            </g>
          </g>
        </g>
      </g>
    </g>
  </g>
</svg>